<?xml version="1.0" encoding="utf-8"?>
<!-- Generated by IcoMoon.io -->
<!DOCTYPE svg PUBLIC "-//W3C//DTD SVG 1.1//EN" "http://www.w3.org/Graphics/SVG/1.1/DTD/svg11.dtd">
<svg version="1.1" xmlns="http://www.w3.org/2000/svg" xmlns:xlink="http://www.w3.org/1999/xlink" width="36" height="32" viewBox="0 0 36 32">
<g id="icomoon-ignore">
	<line stroke-width="1" x1="" y1="" x2="" y2="" stroke="#449FDB" opacity=""></line>
</g>
	<path d="M13.125 23.515l-3.408 2.476 4.15 3.015 1.301-4.006-2.043-1.485z" opacity="1" visibility="false" fill="#333333"></path>
	<path d="M14.48 29.452l3.408 2.476 3.406-2.476-3.406-2.477-3.408 2.477z" opacity="1" visibility="false" fill="#333333"></path>
	<path d="M16.201 21.801l-12.494-9.079 2.917 6.069 4.144 3.009h5.434z" opacity="1" visibility="false" fill="#333333"></path>
	<path d="M17.509 17.799l-17.456-12.683 2.916 6.070 13.5 9.809 1.039-3.196z" opacity="1" visibility="false" fill="#333333"></path>
	<path d="M2.528 0.136l-2.058 4.283 6.325 4.595-4.267-8.878z" opacity="1" visibility="false" fill="#333333"></path>
	<path d="M20.606 25l1.302 4.006 4.148-3.015-3.408-2.476-2.042 1.485z" opacity="1" visibility="false" fill="#333333"></path>
	<path d="M25.007 21.801l4.144-3.009 2.915-6.069-12.493 9.079h5.434z" opacity="1" visibility="false" fill="#333333"></path>
	<path d="M18.266 17.799l1.038 3.196 13.501-9.809 2.917-6.070-17.455 12.683z" opacity="1" visibility="false" fill="#333333"></path>
	<path d="M33.246 0.136l-4.268 8.878 6.326-4.595-2.058-4.283z" opacity="1" visibility="false" fill="#333333"></path>
	<path d="M15.994 24.112c0-1.045 0.848-1.893 1.894-1.893 1.044 0 1.893 0.848 1.893 1.893s-0.849 1.894-1.893 1.894c-1.046 0-1.894-0.848-1.894-1.894z" opacity="1" visibility="false" fill="#333333"></path>
</svg>
