<?xml version="1.0" encoding="utf-8"?>
<!-- Generated by IcoMoon.io -->
<!DOCTYPE svg PUBLIC "-//W3C//DTD SVG 1.1//EN" "http://www.w3.org/Graphics/SVG/1.1/DTD/svg11.dtd">
<svg version="1.1" xmlns="http://www.w3.org/2000/svg" xmlns:xlink="http://www.w3.org/1999/xlink" width="31" height="32" viewBox="0 0 31 32">
<g id="icomoon-ignore">
	<line stroke-width="1" x1="" y1="" x2="" y2="" stroke="#449FDB" opacity=""></line>
</g>
	<path d="M29.477 18.092c0.069-0.524 1.035-1.3 1.066-1.828 0.056-0.96-1.241-2.838-2.132-3.199-1.415-0.572-8.607-0.305-8.607-0.305-0.703-1.229 1.252-4.263 1.79-5.573 0.789-1.92 0.656-4.467-0.342-5.775-1.219-1.599-3.458-1.705-3.504-0.99-0.333 5.188-1.327 6.628-2.657 7.654-0.799 0.616-1.497 1.156-1.866 2.095-2.267 5.772-3.946 7.108-4.906 7.108h-0.64v13.12l6.718 1.25c0 0 8.341 0.789 10.967 0 0.826-0.248 2.252-1.489 2.589-2.285 0.193-0.457-0.075-1.539 0.153-1.98 0.336-0.654 1.753-1.473 1.752-2.361-0.001-0.633-0.74-1.73-0.686-2.361s1.372-1.499 1.371-2.132c-0.003-0.664-1.155-1.778-1.068-2.437z" opacity="1" visibility="false" fill="#333333"></path>
	<path d="M6.4 30.080c0 0.707-0.573 1.28-1.28 1.28h-3.84c-0.707 0-1.28-0.573-1.28-1.28v-12.16c0-0.707 0.573-1.28 1.28-1.28h3.84c0.707 0 1.28 0.573 1.28 1.28v12.16z" opacity="1" visibility="false" fill="#333333"></path>
</svg>
