<?xml version="1.0" encoding="utf-8"?>
<!-- Generated by IcoMoon.io -->
<!DOCTYPE svg PUBLIC "-//W3C//DTD SVG 1.1//EN" "http://www.w3.org/Graphics/SVG/1.1/DTD/svg11.dtd">
<svg version="1.1" xmlns="http://www.w3.org/2000/svg" xmlns:xlink="http://www.w3.org/1999/xlink" width="32" height="32" viewBox="0 0 32 32">
<g id="icomoon-ignore">
	<line stroke-width="1" x1="" y1="" x2="" y2="" stroke="#449FDB" opacity=""></line>
</g>
	<path d="M7.852 10.302c2.343 0 4.25-1.906 4.25-4.253v-0.129l-1.64 0.13c0 1.439-1.172 2.612-2.61 2.612-1.439 0-2.612-1.171-2.612-2.612 0-1.218 0.821-2.268 1.997-2.55l-0.38-1.596c-1.917 0.46-3.258 2.162-3.258 4.146 0 2.348 1.908 4.253 4.253 4.253z" opacity="1" visibility="false" fill="#333333"></path>
	<path d="M7.85 21.757c-2.347 0-4.259 1.911-4.259 4.259s1.912 4.259 4.259 4.259c2.349 0 4.258-1.91 4.258-4.259s-1.908-4.259-4.258-4.259zM7.85 28.634c-1.443 0-2.616-1.174-2.616-2.618 0-1.444 1.174-2.616 2.616-2.616s2.616 1.171 2.616 2.616c0 1.443-1.172 2.618-2.616 2.618z" opacity="1" visibility="false" fill="#333333"></path>
	<path d="M6.024 5.457l2.099 2.020 2.889-4.193-1.351-0.934-1.793 2.604-0.707-0.679z" opacity="1" visibility="false" fill="#333333"></path>
	<path d="M7.85 20.226c2.344 0 4.252-1.908 4.252-4.253v-0.132l-1.642 0.132c0 1.438-1.17 2.612-2.61 2.612-1.439 0-2.611-1.173-2.611-2.612 0-1.219 0.822-2.268 1.997-2.551l-0.381-1.597c-1.917 0.46-3.258 2.162-3.258 4.147-0.001 2.347 1.907 4.255 4.252 4.255z" opacity="1" visibility="false" fill="#333333"></path>
	<path d="M11.011 13.202l-1.351-0.932-1.795 2.603-0.705-0.679-1.137 1.185 2.097 2.019z" opacity="1" visibility="false" fill="#333333"></path>
	<path d="M14.374 3.695h14.64v1.642h-14.64v-1.642z" opacity="1" visibility="false" fill="#333333"></path>
	<path d="M14.374 6.426h11.358v1.642h-11.358v-1.642z" opacity="1" visibility="false" fill="#333333"></path>
	<path d="M14.374 13.439h14.64v1.641h-14.64v-1.641z" opacity="1" visibility="false" fill="#333333"></path>
	<path d="M14.374 16.168h11.358v1.641h-11.358v-1.641z" opacity="1" visibility="false" fill="#333333"></path>
	<path d="M14.923 23.829h14.64v1.64h-14.64v-1.64z" opacity="1" visibility="false" fill="#333333"></path>
	<path d="M14.923 26.56h11.356v1.642h-11.356v-1.642z" opacity="1" visibility="false" fill="#333333"></path>
</svg>
