<?xml version="1.0" encoding="utf-8"?>
<!-- Generated by IcoMoon.io -->
<!DOCTYPE svg PUBLIC "-//W3C//DTD SVG 1.1//EN" "http://www.w3.org/Graphics/SVG/1.1/DTD/svg11.dtd">
<svg version="1.1" xmlns="http://www.w3.org/2000/svg" xmlns:xlink="http://www.w3.org/1999/xlink" width="34" height="32" viewBox="0 0 34 32">
<g id="icomoon-ignore">
	<line stroke-width="1" x1="" y1="" x2="" y2="" stroke="#449FDB" opacity=""></line>
</g>
	<path d="M-202.856-15.090h45.003v48.782h-45.003v-48.782z" opacity="1" visibility="false" fill="#333333"></path>
	<path d="M7.434 16.843c1.426 0 2.58-1.154 2.58-2.58 0-1.417-1.154-2.571-2.58-2.571-1.417 0-2.571 1.154-2.571 2.571 0.001 1.426 1.155 2.58 2.571 2.58z" opacity="1" visibility="false" fill="#333333"></path>
	<path d="M12.757 8.259v7.983l-2.461 1.18-0.944-0.002-5.38 0.003c-0.502-0.043-0.988 0.33-1.162 0.827l-2.81 7.981h2.566l1.407-3.996v3.996h6.962l-0.002-6.439c0.025-0.010 0.052-0.016 0.077-0.028l1.75-0.839v2.263h21.595v-12.929h-21.595zM33.074 19.909h-19.038v-1.597l5.966-2.859c0.562-0.27 0.799-0.945 0.529-1.507l-0.070-0.145c-0.27-0.562-0.944-0.799-1.506-0.529l-4.918 2.357v-6.092h19.038v10.372z" opacity="1" visibility="false" fill="#333333"></path>
</svg>
