<?xml version="1.0" encoding="utf-8"?>
<!-- Generated by IcoMoon.io -->
<!DOCTYPE svg PUBLIC "-//W3C//DTD SVG 1.1//EN" "http://www.w3.org/Graphics/SVG/1.1/DTD/svg11.dtd">
<svg version="1.1" xmlns="http://www.w3.org/2000/svg" xmlns:xlink="http://www.w3.org/1999/xlink" width="32" height="32" viewBox="0 0 32 32">
<g id="icomoon-ignore">
	<line stroke-width="1" x1="" y1="" x2="" y2="" stroke="#449FDB" opacity=""></line>
</g>
	<path d="M15.853 0c-8.75-0.006-15.844 7.16-15.853 15.993 0.009 8.846 7.103 16.010 15.853 16.007 8.753 0.004 15.847-7.161 15.854-16.007-0.007-8.833-7.101-15.999-15.854-15.993zM15.853 28.315c-6.732 0-12.191-5.514-12.185-12.324-0.007-6.793 5.453-12.306 12.185-12.304 6.735-0.002 12.195 5.511 12.202 12.307-0.007 6.807-5.467 12.322-12.202 12.322z" opacity="1" visibility="false" fill="#333333"></path>
	<path d="M14.518 20.592l2.903-0.013v-2.245c-0.007-0.608 0.276-1.185 1.037-1.684 0.762-0.5 2.885-1.512 2.888-4.18-0.003-2.656-2.234-4.485-4.109-4.88-1.873-0.381-3.905-0.127-5.344 1.46-1.293 1.407-1.565 2.525-1.57 4.993h2.902v-0.576c-0.004-1.313 0.147-2.7 2.020-3.085 1.031-0.202 1.992 0.12 2.566 0.673 0.648 0.642 0.653 2.079-0.391 2.791l-1.629 1.109c-0.947 0.614-1.273 1.292-1.275 2.285v3.351h0z" opacity="1" visibility="false" fill="#333333"></path>
	<path d="M14.504 24.702v-2.973h2.931v2.973z" opacity="1" visibility="false" fill="#333333"></path>
</svg>
