<?xml version="1.0" encoding="utf-8"?>
<!-- Generated by IcoMoon.io -->
<!DOCTYPE svg PUBLIC "-//W3C//DTD SVG 1.1//EN" "http://www.w3.org/Graphics/SVG/1.1/DTD/svg11.dtd">
<svg version="1.1" xmlns="http://www.w3.org/2000/svg" xmlns:xlink="http://www.w3.org/1999/xlink" width="32" height="32" viewBox="0 0 32 32">
<g id="icomoon-ignore">
	<line stroke-width="1" x1="" y1="" x2="" y2="" stroke="#449FDB" opacity=""></line>
</g>
	<path d="M6.266 7.873v23.511h19.469v-23.511h-19.469zM11.933 29.23h-3.648v-19.012h3.648v19.012zM17.634 29.23h-3.649v-19.012h3.649v19.012zM23.334 29.23h-3.648v-19.012h3.648v19.012z" opacity="1" visibility="false" fill="#333333"></path>
	<path d="M18.246 0.616h-4.493c-1.688 0-3.055 1.368-3.055 3.055v2.849c0.329 0.252 0.71 0.436 1.124 0.538v-2.911c0-1.329 1.078-2.407 2.408-2.407h3.539c1.329 0 2.408 1.078 2.408 2.407v2.564c0.471-0.284 0.862-0.689 1.124-1.177v-1.864c-0.001-1.688-1.37-3.055-3.056-3.055z" opacity="1" visibility="false" fill="#333333"></path>
	<path d="M24.359 4.307h-18.093v2.752h19.469v-2.752z" opacity="1" visibility="false" fill="#333333"></path>
</svg>
