<?xml version="1.0" encoding="utf-8"?>
<!-- Generated by IcoMoon.io -->
<!DOCTYPE svg PUBLIC "-//W3C//DTD SVG 1.1//EN" "http://www.w3.org/Graphics/SVG/1.1/DTD/svg11.dtd">
<svg version="1.1" xmlns="http://www.w3.org/2000/svg" xmlns:xlink="http://www.w3.org/1999/xlink" width="32" height="32" viewBox="0 0 32 32">
<g id="icomoon-ignore">
	<line stroke-width="1" x1="" y1="" x2="" y2="" stroke="#449FDB" opacity=""></line>
</g>
	<path d="M7.983 14.912c0 2.025-1.642 3.663-3.659 3.663-2.029 0-3.666-1.637-3.666-3.663-0.001-2.021 1.637-3.662 3.666-3.662 2.017 0 3.659 1.642 3.659 3.662z" opacity="1" visibility="false" fill="#333333"></path>
	<path d="M24.017 14.912c0 2.025 1.642 3.663 3.658 3.663 2.029 0 3.671-1.637 3.671-3.663-0-2.021-1.642-3.662-3.671-3.662-2.016 0-3.658 1.642-3.658 3.662z" opacity="1" visibility="false" fill="#333333"></path>
	<path d="M13.975 27.5c-0.083-0.78 0.217-1.5 0.725-2.025-3.1-0.592-4.371-2.104-5.475-3.471-0.538-0.671-1.050-1.308-1.729-1.758-0.021-0.012-0.046-0.012-0.062-0.029-0.58-0.479-1.313-0.783-2.121-0.783h-1.98c-1.834 0-3.334 1.496-3.334 3.329v9.237h8.646v-5.971c1.262 1.104 3.046 2.154 5.788 2.612-0.229-0.333-0.408-0.708-0.458-1.142z" opacity="1" visibility="false" fill="#333333"></path>
	<path d="M28.671 19.433h-1.984c-0.804 0-1.541 0.304-2.116 0.783-0.020 0.017-0.046 0.017-0.062 0.029-0.679 0.45-1.192 1.084-1.733 1.759-1.212 1.5-2.588 3.212-6.433 3.637-0.871 0.1-1.496 0.883-1.4 1.754 0.087 0.812 0.775 1.412 1.575 1.412 0.059 0 0.117-0.005 0.18-0.008 3.258-0.363 5.275-1.521 6.662-2.75v5.95h8.641v-9.237c0-1.833-1.5-3.329-3.329-3.329z" opacity="1" visibility="false" fill="#333333"></path>
	<path d="M13.673 8.855v-3.664c0-0.947 0.734-1.716 1.639-1.716h3.585v-0.874c0-1.172-0.908-2.122-2.028-2.122h-9.402c-1.119 0-2.028 0.95-2.028 2.122v4.534c0 1.172 0.908 2.123 2.028 2.123h1.551c0 0.835 0 1.67 0 2.505 0 0.138 0.19 0.236 0.288 0.12 0.74-0.875 1.478-1.75 2.218-2.625h2.196c-0.030-0.13-0.048-0.264-0.048-0.404z" opacity="1" visibility="false" fill="#333333"></path>
	<path d="M14.604 5.795v4.091c0 0.854 0.662 1.547 1.478 1.547h3.896c0.539 0.638 1.078 1.276 1.617 1.914 0.072 0.085 0.21 0.014 0.21-0.087 0-0.609 0-1.218 0-1.827h2.44c0.816 0 1.478-0.693 1.478-1.547v-4.091c0-0.854-0.662-1.547-1.478-1.547h-8.163c-0.817-0-1.478 0.693-1.478 1.547z" opacity="1" visibility="false" fill="#333333"></path>
</svg>
