<?xml version="1.0" encoding="utf-8"?>
<!-- Generated by IcoMoon.io -->
<!DOCTYPE svg PUBLIC "-//W3C//DTD SVG 1.1//EN" "http://www.w3.org/Graphics/SVG/1.1/DTD/svg11.dtd">
<svg version="1.1" xmlns="http://www.w3.org/2000/svg" xmlns:xlink="http://www.w3.org/1999/xlink" width="32" height="32" viewBox="0 0 32 32">
<path fill="#333333" d="M31.662 23.447c0.186 0 0.338-0.152 0.338-0.338v-1.35c0-0.186-0.152-0.338-0.338-0.338h-22.573c-0.225 0.498-0.724 0.846-1.305 0.846s-1.080-0.348-1.305-0.846h-1.142l-0.198 0.198c-1.119 1.119-1.736 2.607-1.736 4.19s0.617 3.072 1.736 4.19l0.198 0.198h1.118c0.212-0.527 0.726-0.9 1.329-0.9s1.117 0.373 1.329 0.9h22.55c0.185 0 0.338-0.152 0.338-0.338v-1.35c0-0.185-0.153-0.338-0.338-0.338h-1.389c-0.427-0.706-0.656-1.517-0.656-2.363s0.229-1.657 0.656-2.363l1.388 0.001zM7.532 28.173h-1.307c-0.516-0.676-0.796-1.498-0.796-2.363s0.28-1.687 0.796-2.363h22.536c-0.157 0.362-0.278 0.74-0.362 1.128h-8.743c-0.279 0-0.506 0.227-0.506 0.506s0.227 0.506 0.506 0.506h8.623c-0.003 0.074-0.012 0.148-0.012 0.221 0 0.827 0.172 1.627 0.492 2.363l-21.229 0.001z"></path>
<path fill="#333333" d="M31.662 3.828c0.186 0 0.338-0.152 0.338-0.338v-1.35c0-0.186-0.152-0.338-0.338-0.338h-22.573c-0.225 0.498-0.724 0.845-1.305 0.845s-1.080-0.348-1.305-0.845h-1.142l-0.197 0.198c-1.119 1.119-1.736 2.607-1.736 4.19s0.617 3.071 1.736 4.19l0.198 0.198h1.118c0.212-0.527 0.726-0.9 1.329-0.9s1.117 0.373 1.329 0.9h22.55c0.185 0 0.338-0.152 0.338-0.338v-1.35c0-0.186-0.153-0.338-0.338-0.338h-1.389c-0.427-0.706-0.656-1.516-0.656-2.363s0.229-1.657 0.656-2.363h1.388zM7.532 8.553h-1.307c-0.516-0.676-0.796-1.498-0.796-2.363s0.28-1.687 0.796-2.363h22.536c-0.157 0.362-0.278 0.74-0.362 1.128h-8.743c-0.279 0-0.506 0.227-0.506 0.506s0.227 0.506 0.506 0.506h8.623c-0.003 0.074-0.012 0.147-0.012 0.221 0 0.827 0.172 1.627 0.492 2.363l-21.229 0.001z"></path>
<path fill="#333333" d="M26.871 18.364c-0.427-0.706-0.656-1.517-0.656-2.363s0.229-1.657 0.656-2.363h1.389c0.186 0 0.338-0.152 0.338-0.338v-1.35c0-0.186-0.152-0.338-0.338-0.338h-22.549c-0.212 0.527-0.726 0.9-1.329 0.9s-1.117-0.373-1.329-0.9h-1.119l-0.198 0.198c-1.119 1.119-1.736 2.608-1.736 4.19s0.617 3.072 1.736 4.191l0.198 0.197h1.142c0.225-0.498 0.724-0.846 1.305-0.846s1.080 0.348 1.305 0.846h22.573c0.186 0 0.338-0.152 0.338-0.338v-1.35c0-0.186-0.152-0.338-0.338-0.338l-1.389 0.001zM25.358 13.638c-0.32 0.736-0.492 1.536-0.492 2.363 0 0.075 0.009 0.148 0.012 0.222h-8.623c-0.28 0-0.506 0.227-0.506 0.506s0.227 0.506 0.506 0.506h8.743c0.083 0.389 0.204 0.767 0.362 1.128h-22.536c-0.517-0.676-0.796-1.498-0.796-2.363s0.28-1.687 0.796-2.363l22.536 0.001z"></path>
</svg>
