<?xml version="1.0" encoding="utf-8"?>
<!-- Generated by IcoMoon.io -->
<!DOCTYPE svg PUBLIC "-//W3C//DTD SVG 1.1//EN" "http://www.w3.org/Graphics/SVG/1.1/DTD/svg11.dtd">
<svg version="1.1" xmlns="http://www.w3.org/2000/svg" xmlns:xlink="http://www.w3.org/1999/xlink" width="32" height="32" viewBox="0 0 32 32">
<path fill="#333333" d="M32 1.778h-7.556v-0.444c0-0.737-0.597-1.333-1.333-1.333s-1.333 0.597-1.333 1.333v0.444h-11.555v-0.444c-0-0.737-0.597-1.333-1.333-1.333s-1.333 0.597-1.333 1.333v0.444h-7.556v2.667h7.556v0.444c0 0.737 0.597 1.333 1.333 1.333s1.333-0.597 1.333-1.333v-0.444h11.555v0.444c0 0.737 0.597 1.333 1.333 1.333s1.333-0.597 1.333-1.333v-0.444h7.556v-2.667z"></path>
<path fill="#333333" d="M0 7.111v24.889h32v-24.889h-32zM10.195 10.693c-0.26-0.26-0.26-0.682 0-0.943s0.682-0.26 0.943 0l1.307 1.307 1.307-1.307c0.26-0.26 0.682-0.26 0.943 0s0.26 0.682 0 0.943l-1.307 1.307 1.307 1.307c0.26 0.26 0.26 0.682 0 0.943-0.13 0.13-0.301 0.195-0.471 0.195s-0.341-0.065-0.471-0.195l-1.307-1.307-1.307 1.307c-0.13 0.13-0.301 0.195-0.471 0.195s-0.341-0.065-0.471-0.195c-0.26-0.26-0.26-0.682 0-0.943l1.307-1.307-1.307-1.307zM3.084 10.693c-0.26-0.26-0.26-0.682 0-0.943s0.682-0.26 0.943 0l1.307 1.307 1.307-1.307c0.26-0.26 0.682-0.26 0.943 0s0.26 0.682 0 0.943l-1.307 1.307 1.307 1.307c0.26 0.26 0.26 0.682 0 0.943-0.13 0.13-0.301 0.195-0.471 0.195s-0.341-0.065-0.471-0.195l-1.307-1.307-1.307 1.307c-0.13 0.13-0.301 0.195-0.471 0.195s-0.341-0.065-0.471-0.195c-0.26-0.26-0.26-0.682 0-0.943l1.307-1.307-1.306-1.307zM8 29.333h-5.333v-5.333h5.333v5.333zM8 22.222h-5.333v-5.333h5.333v5.333zM14.693 27.973c0.26 0.26 0.26 0.682 0 0.942-0.13 0.13-0.301 0.195-0.471 0.195s-0.341-0.065-0.471-0.195l-1.307-1.306-1.307 1.306c-0.13 0.13-0.301 0.195-0.471 0.195s-0.341-0.065-0.471-0.195c-0.26-0.26-0.26-0.682 0-0.942l1.307-1.307-1.306-1.307c-0.26-0.26-0.26-0.683 0-0.943s0.682-0.26 0.943 0l1.307 1.306 1.307-1.306c0.26-0.26 0.682-0.26 0.943 0s0.26 0.682 0 0.943l-1.307 1.306 1.306 1.307zM15.111 22.222h-5.333v-5.333h5.333v5.333zM21.805 27.973c0.26 0.26 0.26 0.682 0 0.942-0.13 0.13-0.301 0.195-0.471 0.195s-0.341-0.065-0.472-0.195l-1.306-1.306-1.307 1.306c-0.13 0.13-0.3 0.195-0.471 0.195s-0.341-0.065-0.471-0.195c-0.26-0.26-0.26-0.682 0-0.942l1.306-1.307-1.306-1.306c-0.26-0.26-0.26-0.683 0-0.943s0.682-0.26 0.942 0l1.307 1.306 1.306-1.306c0.26-0.26 0.683-0.26 0.943 0s0.26 0.682 0 0.943l-1.307 1.306 1.307 1.307zM22.222 22.222h-5.333v-5.333h5.333v5.333zM22.222 15.111h-5.333v-5.333h5.333v5.333zM28.916 27.973c0.26 0.26 0.26 0.682 0 0.942-0.13 0.13-0.3 0.195-0.471 0.195s-0.341-0.065-0.471-0.195l-1.307-1.306-1.306 1.306c-0.13 0.13-0.301 0.195-0.472 0.195s-0.341-0.065-0.471-0.195c-0.26-0.26-0.26-0.682 0-0.942l1.307-1.307-1.307-1.306c-0.26-0.26-0.26-0.683 0-0.943s0.682-0.26 0.943 0l1.306 1.306 1.307-1.306c0.26-0.26 0.682-0.26 0.942 0s0.26 0.682 0 0.943l-1.306 1.306 1.307 1.307zM29.333 22.222h-5.333v-5.333h5.333v5.333zM29.333 15.111h-5.333v-5.333h5.333v5.333z"></path>
</svg>
