<?xml version="1.0" encoding="utf-8"?>
<!-- Generated by IcoMoon.io -->
<!DOCTYPE svg PUBLIC "-//W3C//DTD SVG 1.1//EN" "http://www.w3.org/Graphics/SVG/1.1/DTD/svg11.dtd">
<svg version="1.1" xmlns="http://www.w3.org/2000/svg" xmlns:xlink="http://www.w3.org/1999/xlink" width="32" height="32" viewBox="0 0 32 32">
<path fill="#333333" d="M16-0c-8.836 0-16 7.163-16 16.001 0 7.879 5.7 14.412 13.199 15.739l-3.114-23.118c-0.067-0.505 0.284-0.963 0.789-1.032 0.5-0.069 0.96 0.286 1.028 0.785l3.178 23.577c0.306 0.019 0.609 0.048 0.92 0.048 8.836 0 16-7.165 16-16-0-8.837-7.164-16.001-16-16.001zM14.44 19.294l-1.32-9.792c4.236 0.035 8.406 2.398 12.735-0.78-1.061 3.49-1.715 4.18-2.93 6.54 1.794 1.943 2.608 2.442 4.251 3.252-4.328 3.18-8.501 0.815-12.736 0.78z"></path>
</svg>
