<?xml version="1.0" encoding="utf-8"?>
<!-- Generated by IcoMoon.io -->
<!DOCTYPE svg PUBLIC "-//W3C//DTD SVG 1.1//EN" "http://www.w3.org/Graphics/SVG/1.1/DTD/svg11.dtd">
<svg version="1.1" xmlns="http://www.w3.org/2000/svg" xmlns:xlink="http://www.w3.org/1999/xlink" width="32" height="32" viewBox="0 0 32 32">
<path fill="#333333" d="M32.553 31.652h-13.533v-13.533h13.533v13.533z"></path>
<path fill="#333333" d="M22.68 11.722h-2.588l4.104 4.030 4.104-4.067h-2.588c-0.37-4.659-4.326-8.357-9.096-8.357v2.995c3.106 0.037 5.694 2.366 6.064 5.399z"></path>
<path fill="#333333" d="M10.071 20.412h2.551l-4.104-4.104-4.104 4.104h2.588c0.37 4.659 4.326 8.357 9.133 8.357v-3.032c-3.106 0-5.694-2.33-6.064-5.325z"></path>
<path fill="#333333" d="M3.563 14.31l10.095-10.095v-1.331l-11.426 11.426z"></path>
<path fill="#333333" d="M1.714 14.31l11.943-11.943v-1.331l-13.274 13.274z"></path>
<path fill="#333333" d="M0.124 10.243l9.466-9.466h-1.331l-8.135 8.135z"></path>
<path fill="#333333" d="M0.124 12.092l11.315-11.315h-1.331l-9.984 9.984z"></path>
<path fill="#333333" d="M7.261 14.31l6.397-6.397v-1.331l-7.728 7.728z"></path>
<path fill="#333333" d="M10.959 14.31l2.699-2.699v-1.331l-4.030 4.030z"></path>
<path fill="#333333" d="M5.412 14.31l8.246-8.246v-1.331l-9.577 9.577z"></path>
<path fill="#333333" d="M9.11 14.31l4.548-4.548v-1.331l-5.879 5.879z"></path>
<path fill="#333333" d="M13.658 14.31v-2.182l-2.182 2.182z"></path>
<path fill="#333333" d="M0.124 13.941l13.164-13.164h-1.331l-11.832 11.832z"></path>
<path fill="#333333" d="M0.124 2.848l2.071-2.071h-2.071z"></path>
<path fill="#333333" d="M0.124 4.697l3.92-3.92h-1.331l-2.588 2.588z"></path>
<path fill="#333333" d="M0.124 6.545l5.768-5.768h-1.331l-4.437 4.437z"></path>
<path fill="#333333" d="M0.124 8.394l7.617-7.617h-1.331l-6.286 6.286z"></path>
</svg>
