<?xml version="1.0" encoding="utf-8"?>
<!-- Generated by IcoMoon.io -->
<!DOCTYPE svg PUBLIC "-//W3C//DTD SVG 1.1//EN" "http://www.w3.org/Graphics/SVG/1.1/DTD/svg11.dtd">
<svg version="1.1" xmlns="http://www.w3.org/2000/svg" xmlns:xlink="http://www.w3.org/1999/xlink" width="32" height="32" viewBox="0 0 32 32">
<path fill="#333333" d="M15.974 20.592c-0.047 0-0.094-0.010-0.139-0.028l-6.921-2.964v4.372c0 0 2.793 3.255 7.121 3.264v0.001c0.003 0 0.005-0.001 0.008-0.001s0.004 0.001 0.007 0.001v-0.001c4.327-0.008 7.121-3.264 7.121-3.264v-4.359l-7.060 2.952c-0.043 0.018-0.090 0.027-0.136 0.027z"></path>
<path fill="#333333" d="M15.591 15.033c-2.709-0.322-5.986-0.661-7.455 1.104l0.778 0.348v0.001l7.062 3.023 13.783-5.764-13.698-5.846-13.736 5.763 4.411 1.888c-0.266 0.344-0.787 1.41-0.978 1.82-0.321 0.054-0.569 0.32-0.569 0.656 0 0.239 0.132 0.44 0.319 0.56h-0.022l-0.52 3.322h1.742l-0.459-3.322h-0.022c0.188-0.12 0.32-0.321 0.32-0.56 0-0.146-0.057-0.273-0.134-0.384 0.779-1.66 2.535-3.372 4.654-3.763 1.467-0.223 3.084-0.157 4.527 0.014 0.194 0.023 0.473 0.473 0.45 0.666s-0.257 0.498-0.452 0.472z"></path>
</svg>
