<?xml version="1.0" encoding="utf-8"?>
<!-- Generated by IcoMoon.io -->
<!DOCTYPE svg PUBLIC "-//W3C//DTD SVG 1.1//EN" "http://www.w3.org/Graphics/SVG/1.1/DTD/svg11.dtd">
<svg version="1.1" xmlns="http://www.w3.org/2000/svg" xmlns:xlink="http://www.w3.org/1999/xlink" width="32" height="32" viewBox="0 0 32 32">
<path fill="#333333" d="M30.055 19.948h-4.397v-3.369c0-0.66-0.471-1.197-1.047-1.197h-7.998v-3.328h4.399c1.013 0 1.839-0.825 1.839-1.838v-5.637c0-1.015-0.825-1.84-1.839-1.84h-10.024c-1.014 0-1.839 0.825-1.839 1.84v5.636c0 1.013 0.825 1.838 1.839 1.838h4.399v3.328h-7.927c-0.616 0-1.116 0.539-1.116 1.197v3.369h-4.399c-1.014 0-1.839 0.825-1.839 1.84v5.637c0 1.013 0.824 1.838 1.839 1.838h10.023c1.013 0 1.839-0.825 1.839-1.838v-5.636c0-1.015-0.825-1.84-1.839-1.84h-4.504l-0.004-3.34h16.971v3.34h-4.399c-1.014 0-1.839 0.825-1.839 1.84v5.637c0 1.013 0.824 1.838 1.839 1.838h10.023c1.013 0 1.839-0.825 1.839-1.838v-5.637c0-1.015-0.825-1.84-1.839-1.84z"></path>
</svg>
