<?xml version="1.0" encoding="utf-8"?>
<!-- Generated by IcoMoon.io -->
<!DOCTYPE svg PUBLIC "-//W3C//DTD SVG 1.1//EN" "http://www.w3.org/Graphics/SVG/1.1/DTD/svg11.dtd">
<svg version="1.1" xmlns="http://www.w3.org/2000/svg" xmlns:xlink="http://www.w3.org/1999/xlink" width="32" height="32" viewBox="0 0 32 32">
<path fill="#333333" d="M26.908 12.26c1.164 0 2.111-0.947 2.113-2.111 0-1.165-0.948-2.114-2.113-2.114h-2.531l0.552-2.653c0.114-0.553 0.007-1.116-0.302-1.588s-0.784-0.795-1.337-0.91c-0.142-0.029-0.287-0.044-0.432-0.044-0.994 0-1.863 0.707-2.068 1.682l-0.731 3.514-4.696 0.002 0.557-2.684c0.116-0.553 0.008-1.116-0.301-1.589-0.309-0.471-0.785-0.795-1.337-0.91-0.142-0.030-0.288-0.045-0.432-0.045-0.995 0-1.864 0.708-2.067 1.683l-0.737 3.545h-4.385c-1.164 0-2.111 0.947-2.111 2.113 0 1.164 0.948 2.111 2.113 2.111h3.504l-1.41 6.782h-3.667c-1.164 0-2.111 0.947-2.111 2.113 0 1.164 0.948 2.111 2.113 2.111h2.788l-0.699 3.353c-0.236 1.139 0.498 2.26 1.639 2.498 0.142 0.029 0.287 0.044 0.431 0.044 0.995 0 1.865-0.708 2.067-1.682l0.876-4.214h4.697l-0.704 3.384c-0.114 0.552-0.008 1.116 0.301 1.588s0.785 0.795 1.338 0.91c0.142 0.030 0.287 0.044 0.431 0.044 0.996 0 1.865-0.707 2.068-1.682l0.882-4.244h4.127c1.164 0 2.111-0.947 2.113-2.111 0-1.165-0.948-2.114-2.113-2.114h-3.248l1.41-6.78h3.411zM19.18 12.26l-1.409 6.78-4.697 0.002 1.41-6.782h4.696z"></path>
</svg>
