<?xml version="1.0" encoding="utf-8"?>
<!-- Generated by IcoMoon.io -->
<!DOCTYPE svg PUBLIC "-//W3C//DTD SVG 1.1//EN" "http://www.w3.org/Graphics/SVG/1.1/DTD/svg11.dtd">
<svg version="1.1" xmlns="http://www.w3.org/2000/svg" xmlns:xlink="http://www.w3.org/1999/xlink" width="35" height="32" viewBox="0 0 35 32">
<g id="icomoon-ignore">
	<line stroke-width="1" x1="" y1="" x2="" y2="" stroke="#449FDB" opacity=""></line>
</g>
	<path d="M34.646 11.988l-16.917-11.842c-0.179-0.125-0.417-0.125-0.596 0l-16.913 11.842c-0.113 0.079-0.189 0.2-0.213 0.335s0.007 0.275 0.086 0.388l2.303 3.289c0.101 0.145 0.262 0.221 0.426 0.221 0.103 0 0.206-0.030 0.297-0.094l14.314-10.024 14.313 10.024c0.236 0.165 0.559 0.107 0.723-0.128l2.304-3.289c0.078-0.113 0.11-0.252 0.086-0.388s-0.1-0.256-0.213-0.335z" opacity="1" visibility="false" fill="#333333"></path>
	<path d="M30.443 17.252l-12.712-8.902c-0.179-0.125-0.417-0.125-0.595 0l-12.779 8.949c-0.139 0.097-0.221 0.256-0.221 0.425v13.757c0 0.286 0.233 0.519 0.52 0.519h8.892c0.287 0 0.519-0.233 0.519-0.519v-11.988h6.736v11.988c0 0.286 0.232 0.519 0.519 0.519h8.825c0.287 0 0.518-0.233 0.518-0.519v-13.805c-0-0.169-0.082-0.328-0.221-0.425z" opacity="1" visibility="false" fill="#333333"></path>
	<path d="M25.826 4.037l3.979 2.786c0.089 0.062 0.193 0.094 0.298 0.094 0.082 0 0.165-0.020 0.24-0.058 0.171-0.089 0.279-0.267 0.279-0.461v-5.879c0-0.287-0.233-0.519-0.519-0.519h-3.979c-0.287 0-0.519 0.233-0.519 0.519v3.093c-0 0.169 0.082 0.328 0.222 0.425z" opacity="1" visibility="false" fill="#333333"></path>
</svg>
