<?xml version="1.0" encoding="utf-8"?>
<!-- Generated by IcoMoon.io -->
<!DOCTYPE svg PUBLIC "-//W3C//DTD SVG 1.1//EN" "http://www.w3.org/Graphics/SVG/1.1/DTD/svg11.dtd">
<svg version="1.1" xmlns="http://www.w3.org/2000/svg" xmlns:xlink="http://www.w3.org/1999/xlink" width="32" height="32" viewBox="0 0 32 32">
<g id="icomoon-ignore">
	<line stroke-width="1" x1="" y1="" x2="" y2="" stroke="#449FDB" opacity=""></line>
</g>
	<path d="M22.35 27.103c-0.041 0-0.084 0.006-0.129 0.022l-1.33 0.381-0.020-7.647-3.666 1.059 0.019 7.65-1.331 0.384c-0.408 0.116-0.528 0.394-0.266 0.612l3.255 2.328c0.087 0.072 0.194 0.106 0.308 0.106 0.227 0 0.48-0.138 0.66-0.388l2.739-3.784c0.24-0.334 0.085-0.725-0.238-0.725z" opacity="1" visibility="false" fill="#333333"></path>
	<path d="M14.983 10.812c-0.366 0-0.7-0.241-0.803-0.609-0.124-0.444 0.136-0.903 0.578-1.028l6.692-1.869c0.444-0.122 0.903 0.138 1.028 0.578 0.124 0.444-0.136 0.903-0.58 1.028l-6.692 1.868c-0.075 0.022-0.15 0.031-0.224 0.031z" opacity="1" visibility="false" fill="#333333"></path>
	<path d="M14.983 14.109c-0.366 0-0.7-0.241-0.803-0.609-0.124-0.441 0.136-0.903 0.578-1.025l6.692-1.869c0.444-0.125 0.903 0.134 1.028 0.578 0.124 0.444-0.136 0.903-0.58 1.028l-6.692 1.869c-0.075 0.019-0.15 0.028-0.223 0.028z" opacity="1" visibility="false" fill="#333333"></path>
	<path d="M14.983 17.209c-0.366 0-0.7-0.241-0.803-0.609-0.124-0.444 0.136-0.903 0.578-1.028l6.692-1.869c0.444-0.122 0.903 0.138 1.028 0.581 0.124 0.441-0.136 0.903-0.58 1.025l-6.692 1.869c-0.075 0.022-0.15 0.031-0.223 0.031z" opacity="1" visibility="false" fill="#333333"></path>
	<path d="M24.237 2.015c-0.55 0.12-1.237 0.297-2.009 0.508v-0.534c0-1.080-0.903-2.188-1.957-1.958-2.814 0.616-9.182 2.678-12.508 3.394-1.056 0.227-1.959 1.117-1.959 2.197v18.216c0 1.081 0.889 2.109 1.959 1.959 0.592-0.084 1.273-0.225 2.009-0.403v0.428c0 1.081 0.889 2.109 1.958 1.959 1.288-0.184 2.981-0.625 4.775-1.156l-0.005-1.678c-1.72 0.506-3.397 0.978-4.771 1.297-0.227 0.053-0.422-0.188-0.422-0.422v-17.829c-0.023-0.538 0.184-0.984 0.811-1.15 1.814-0.484 6.561-1.778 9.547-2.592l0.563-0.153c1.205-0.328 2.009-0.547 2.009-0.547 0.234 0 0.424 0.189 0.424 0.422v18.217c0 0.234-0.199 0.359-0.424 0.422-0.736 0.209-1.642 0.485-2.644 0.791l0.005 1.6c0.957-0.313 1.856-0.609 2.639-0.853 1.031-0.325 1.959-0.709 1.959-1.96v-18.217c0-1.080-0.904-2.189-1.959-1.958zM11.73 5.409c-1.055 0.228-1.958 1.116-1.958 2.197v16.141c-0.716 0.194-1.394 0.369-2.009 0.513-0.228 0.056-0.423-0.188-0.423-0.422v-17.829c-0.023-0.538 0.184-0.984 0.811-1.152 2.733-0.73 12.121-3.291 12.121-3.291 0.233 0 0.422 0.189 0.422 0.422v0.963c-3.006 0.855-6.691 1.969-8.963 2.458z" opacity="1" visibility="false" fill="#333333"></path>
</svg>
