<?xml version="1.0" encoding="utf-8"?>
<!-- Generated by IcoMoon.io -->
<!DOCTYPE svg PUBLIC "-//W3C//DTD SVG 1.1//EN" "http://www.w3.org/Graphics/SVG/1.1/DTD/svg11.dtd">
<svg version="1.1" xmlns="http://www.w3.org/2000/svg" xmlns:xlink="http://www.w3.org/1999/xlink" width="32" height="32" viewBox="0 0 32 32">
<path fill="#333333" d="M10.124 9.118c0 2.256-1.829 4.085-4.085 4.085s-4.085-1.829-4.085-4.085c0-2.256 1.829-4.085 4.085-4.085s4.085 1.829 4.085 4.085z"></path>
<path fill="#333333" d="M15.502 23.085c0.366 0 0.736-0.14 1.015-0.419l5.262-5.26c0.558-0.558 0.561-1.464 0.002-2.022s-1.463-0.559-2.022 0l-4.249 4.183c0 0-4.54-5.167-5.704-5.167s-6.731 0-6.731 0c-1.348 0-2.756 1.234-2.756 2.582v10.218h10.56v-7.787l3.436 3.253c0.279 0.279 0.82 0.419 1.185 0.419z"></path>
<path fill="#333333" d="M14.080 5.12v10.631l1.275 1.346 0.965-0.962v-8.455h13.12v17.28h-15.36v2.24h17.6v-22.080z"></path>
</svg>
