<?xml version="1.0" encoding="utf-8"?>
<!-- Generated by IcoMoon.io -->
<!DOCTYPE svg PUBLIC "-//W3C//DTD SVG 1.1//EN" "http://www.w3.org/Graphics/SVG/1.1/DTD/svg11.dtd">
<svg version="1.1" xmlns="http://www.w3.org/2000/svg" xmlns:xlink="http://www.w3.org/1999/xlink" width="32" height="32" viewBox="0 0 32 32">
<g id="icomoon-ignore">
	<line stroke-width="1" x1="" y1="" x2="" y2="" stroke="#449FDB" opacity=""></line>
</g>
	<path d="M26.355 20.179h-7.465l4.566-9.438c0.078-0.209 0.148-0.421 0.208-0.637 0.19-0.682 0.3-1.397 0.3-2.14 0-4.398-3.566-7.964-7.965-7.964s-7.964 3.566-7.964 7.964c0 0.742 0.109 1.458 0.3 2.14 0.060 0.216 0.13 0.429 0.208 0.637l4.566 9.438h-7.464l-5.644 11.821h32l-5.645-11.821zM16 5.114c1.573 0 2.85 1.276 2.85 2.849 0 1.574-1.276 2.85-2.85 2.85s-2.85-1.276-2.85-2.85c0-1.573 1.276-2.849 2.85-2.849zM11.479 23.101c1.34 0.182 2.126 1.117 3.090 2.277 1.531 1.844 3.437 4.139 8.521 4.139 3.109 0 5.013-0.565 5.672-1.677l1.447 3.031h-18.731v-7.77zM26.861 23.858c-1.98 0.005-4.188-0.013-5.271-1.094-0.372-0.372-0.58-0.856-0.645-1.457h4.699l1.217 2.551zM16 26.152l2.345-4.845h2.038c0.072 0.754 0.335 1.382 0.809 1.857 1.194 1.192 3.387 1.259 5.406 1.259 0.132 0 0.262 0 0.391 0l0.142-0.001 1.3 2.721c-0.018 0.1-0.045 0.198-0.090 0.295-0.318 0.691-1.487 1.514-5.25 1.514-4.819 0-6.556-2.090-8.087-3.935-0.981-1.18-1.92-2.29-3.524-2.48v-1.23h2.176l2.343 4.845zM6.356 21.307h4.559v1.193c-2.464 0.020-3.577 0.859-4.471 1.537-0.589 0.446-1.073 0.809-1.821 0.903l1.734-3.633zM4.342 25.524c1.103-0.032 1.756-0.519 2.441-1.037 0.87-0.659 1.86-1.402 4.131-1.42v7.804h-9.125l2.553-5.347z" opacity="1" visibility="false" fill="#333333"></path>
</svg>
