<?xml version="1.0" encoding="utf-8"?>
<!-- Generated by IcoMoon.io -->
<!DOCTYPE svg PUBLIC "-//W3C//DTD SVG 1.1//EN" "http://www.w3.org/Graphics/SVG/1.1/DTD/svg11.dtd">
<svg version="1.1" xmlns="http://www.w3.org/2000/svg" xmlns:xlink="http://www.w3.org/1999/xlink" width="29" height="32" viewBox="0 0 29 32">
<path fill="#333333" d="M4.689 20.488c-0.193-0.669-0.32-1.365-0.368-2.084h-4.321c0.058 1.235 0.275 2.428 0.628 3.562l4.061-1.478z"></path>
<path fill="#333333" d="M4.586 28.221l2.779-3.312c-0.928-0.893-1.687-1.961-2.216-3.154l-4.060 1.478c0.799 1.907 2.001 3.605 3.498 4.988z"></path>
<path fill="#333333" d="M13.595 27.68c-1.936-0.131-3.72-0.819-5.198-1.902l-2.778 3.311c2.235 1.708 4.986 2.772 7.976 2.912v-4.321z"></path>
<path fill="#333333" d="M14.268 3.446v-3.446l-9.703 5.602 9.703 5.602v-3.445c5.5 0 9.973 4.474 9.973 9.973 0 5.273-4.113 9.6-9.3 9.948v4.321c7.566-0.353 13.612-6.617 13.612-14.268 0-7.877-6.408-14.285-14.285-14.285z"></path>
</svg>
