<?xml version="1.0" encoding="utf-8"?>
<!-- Generated by IcoMoon.io -->
<!DOCTYPE svg PUBLIC "-//W3C//DTD SVG 1.1//EN" "http://www.w3.org/Graphics/SVG/1.1/DTD/svg11.dtd">
<svg version="1.1" xmlns="http://www.w3.org/2000/svg" xmlns:xlink="http://www.w3.org/1999/xlink" width="32" height="32" viewBox="0 0 32 32">
<g id="icomoon-ignore">
	<line stroke-width="1" x1="" y1="" x2="" y2="" stroke="#449FDB" opacity=""></line>
</g>
	<path d="M11.336 19.738c-1.855 1.852-4.414 4.418-5.687 5.687 0.43 0.43 0.488 0.484 0.922 0.922 1.269-1.273 3.832-3.836 5.683-5.688-0.32-0.289-0.625-0.594-0.918-0.922z" opacity="1" visibility="false" fill="#333333"></path>
	<path d="M20.133 0c-6.539 0-11.86 5.32-11.86 11.863 0 1.567 0.32 3.051 0.871 4.418l-9.144 9.144 6.57 6.574 9.148-9.153c1.367 0.555 2.852 0.875 4.414 0.875 6.543 0 11.867-5.32 11.867-11.859 0-6.543-5.324-11.863-11.867-11.863zM20.133 19.727c-4.332 0-7.863-3.531-7.863-7.863 0-4.336 3.531-7.867 7.863-7.867 4.34 0 7.871 3.531 7.871 7.867 0 4.332-3.531 7.863-7.871 7.863z" opacity="1" visibility="false" fill="#333333"></path>
</svg>
