<?xml version="1.0" encoding="utf-8"?>
<!-- Generated by IcoMoon.io -->
<!DOCTYPE svg PUBLIC "-//W3C//DTD SVG 1.1//EN" "http://www.w3.org/Graphics/SVG/1.1/DTD/svg11.dtd">
<svg version="1.1" xmlns="http://www.w3.org/2000/svg" xmlns:xlink="http://www.w3.org/1999/xlink" width="34" height="32" viewBox="0 0 34 32">
<g id="icomoon-ignore">
	<line stroke-width="1" x1="" y1="" x2="" y2="" stroke="#449FDB" opacity=""></line>
</g>
	<path d="M2.235 31.999c-1.235-0.001-2.234-0.999-2.235-2.234v0-23.241c0.001-1.235 1-2.234 2.235-2.234v0h11.983l-3.194 3.192h-7.832v21.324l20.385 0.001v-4.288l3.193-3.192-0.001 8.438c-0.001 1.234-1 2.233-2.235 2.235v0l-22.3-0.001z" fill="#444444" opacity="1" visibility="false" fill="#333333"></path>
	<path d="M23.472 4.009v-4.009l10.375 10.375-10.42 10.42v-4.168c0 0-5.174-1.027-10.494 2.291-2.912 1.803-4.878 4.176-6.089 6.045 0 0 0.394-6.474 4.118-12.371 4.656-7.372 12.509-8.584 12.509-8.584z" fill="#444444" opacity="1" visibility="false" fill="#333333"></path>
	<path d="M79.918 31.999c-1.235-0.001-2.234-0.999-2.235-2.234v0-23.241c0.001-1.235 1-2.234 2.235-2.234v0h11.983l-3.194 3.192h-7.832v21.324l20.386 0.001v-4.288l3.193-3.192-0.001 8.438c-0.001 1.234-1 2.233-2.235 2.235v0l-22.301-0.001z" fill="#000000" opacity="1" visibility="false" fill="#333333"></path>
	<path d="M101.155 4.009v-4.009l10.375 10.375-10.42 10.42v-4.168c0 0-6.112-0.423-10.494 2.291-2.912 1.803-4.648 3.606-6.089 6.045 0 0 0.393-6.474 4.118-12.371 4.657-7.372 12.509-8.584 12.509-8.584z" fill="#000000" opacity="1" visibility="false" fill="#333333"></path>
</svg>
