<?xml version="1.0" encoding="utf-8"?>
<!-- Generated by IcoMoon.io -->
<!DOCTYPE svg PUBLIC "-//W3C//DTD SVG 1.1//EN" "http://www.w3.org/Graphics/SVG/1.1/DTD/svg11.dtd">
<svg version="1.1" xmlns="http://www.w3.org/2000/svg" xmlns:xlink="http://www.w3.org/1999/xlink" width="32" height="32" viewBox="0 0 32 32">
<path fill="#333333" d="M8.072 11.029v20.429h16.918v-20.429h-16.918zM12.998 29.587h-3.17v-16.52h3.17v16.52zM17.95 29.587h-3.17v-16.52h3.17v16.52zM22.904 29.587h-3.17v-16.52h3.17v16.52z"></path>
<path fill="#333333" d="M21.065 1.31l-2.375 1.19-0.248-0.493c-0.656-1.311-2.253-1.841-3.562-1.184l-3.49 1.748c-1.31 0.657-1.84 2.253-1.184 3.564l0.248 0.493-3.444 1.727 1.071 2.138 15.125-7.581-1.073-2.138-1.069 0.537zM11.267 6.067c-0.518-1.033-0.1-2.289 0.932-2.807l2.749-1.379c1.032-0.518 2.29-0.1 2.808 0.932l0.062 0.124-6.49 3.252-0.061-0.123z"></path>
</svg>
