<?xml version="1.0" encoding="utf-8"?>
<!-- Generated by IcoMoon.io -->
<!DOCTYPE svg PUBLIC "-//W3C//DTD SVG 1.1//EN" "http://www.w3.org/Graphics/SVG/1.1/DTD/svg11.dtd">
<svg version="1.1" xmlns="http://www.w3.org/2000/svg" xmlns:xlink="http://www.w3.org/1999/xlink" width="32" height="32" viewBox="0 0 32 32">
<path fill="#333333" d="M8.523 8.896h-0.349c-0.407 0-0.739-0.333-0.739-0.739v-6.978c0-0.407 0.333-0.739 0.739-0.739h0.349c0.407 0 0.739 0.333 0.739 0.739v6.978c0 0.407-0.333 0.739-0.739 0.739z"></path>
<path fill="#333333" d="M16.074 8.896h-0.349c-0.407 0-0.739-0.333-0.739-0.739v-6.978c0-0.407 0.333-0.739 0.739-0.739h0.349c0.407 0 0.739 0.333 0.739 0.739v6.978c0 0.407-0.333 0.739-0.739 0.739z"></path>
<path fill="#333333" d="M23.626 8.896h-0.349c-0.407 0-0.739-0.333-0.739-0.739v-6.978c0-0.407 0.333-0.739 0.739-0.739h0.349c0.407 0 0.739 0.333 0.739 0.739v6.978c0 0.407-0.333 0.739-0.739 0.739z"></path>
<path fill="#333333" d="M28.856 3.551h-3.275v4.431c0 1.174-0.956 2.13-2.13 2.13s-2.13-0.956-2.13-2.13v-4.431h-3.291v4.431c0 1.174-0.956 2.13-2.13 2.13s-2.13-0.956-2.13-2.13v-4.431h-3.291v4.431c0 1.174-0.956 2.13-2.13 2.13s-2.13-0.956-2.13-2.13v-4.431h-3.275c-0.632 0-1.149 0.517-1.149 1.149v25.913c0 0.632 0.517 1.149 1.149 1.149h25.913c0.632 0 1.149-0.517 1.149-1.149v-25.913c-0-0.632-0.518-1.149-1.149-1.149zM28.789 30.546h-25.779v-15.756h25.779v15.756z"></path>
<path fill="#333333" d="M8.348 0.439c-0.126 0-0.245 0.026-0.355 0.072 0.109-0.047 0.229-0.072 0.355-0.072v0z"></path>
<path fill="#333333" d="M8.348 8.896v0c-0.126 0-0.245-0.026-0.355-0.072 0.109 0.046 0.229 0.072 0.355 0.072z"></path>
<path fill="#333333" d="M16.546 0.708c0.166 0.166 0.268 0.394 0.268 0.646v0c-0-0.251-0.103-0.48-0.268-0.646z"></path>
<path fill="#333333" d="M16.083 0.458c0.178 0.037 0.338 0.126 0.462 0.25-0.124-0.124-0.284-0.213-0.462-0.25z"></path>
<path fill="#333333" d="M16.546 8.627c-0.124 0.124-0.284 0.213-0.462 0.25 0.178-0.037 0.338-0.125 0.462-0.25z"></path>
<path fill="#333333" d="M16.813 7.982c0 0.251-0.103 0.48-0.268 0.646 0.166-0.166 0.268-0.394 0.268-0.646v0z"></path>
<path fill="#333333" d="M8.348 0.439c-0.126 0-0.245 0.026-0.355 0.072-0.328 0.139-0.559 0.465-0.559 0.842v6.629c0 0.377 0.231 0.703 0.559 0.842 0.109 0.047 0.229 0.072 0.355 0.072 0.503 0 0.914-0.411 0.914-0.914v-6.629c0-0.503-0.411-0.914-0.914-0.914z"></path>
<path fill="#333333" d="M16.083 0.458c-0.060-0.012-0.121-0.018-0.184-0.018-0.503 0-0.914 0.411-0.914 0.914v6.629c0 0.503 0.411 0.914 0.914 0.914 0.063 0 0.124-0.006 0.184-0.019 0.178-0.037 0.338-0.126 0.462-0.25 0.166-0.166 0.268-0.394 0.268-0.646v-6.629c0-0.251-0.103-0.48-0.268-0.646-0.124-0.124-0.284-0.213-0.462-0.25z"></path>
<path fill="#333333" d="M23.451 0.439c-0.063 0-0.124 0.006-0.183 0.018-0.416 0.085-0.731 0.455-0.731 0.895v6.629c0 0.44 0.315 0.81 0.731 0.895 0.060 0.012 0.121 0.019 0.183 0.019 0.503 0 0.914-0.411 0.914-0.914v-6.629c-0-0.503-0.411-0.914-0.914-0.914z"></path>
<path fill="#333333" d="M22.537 1.353c0-0.44 0.315-0.81 0.731-0.895-0.416 0.085-0.731 0.455-0.731 0.895v0z"></path>
<path fill="#333333" d="M22.537 7.982v0c0 0.44 0.315 0.81 0.731 0.895-0.416-0.085-0.731-0.455-0.731-0.895z"></path>
<path fill="#333333" d="M17.174 22.641l3.173-3.169c0.354-0.354 0.354-0.936 0-1.292-0.089-0.089-0.192-0.156-0.301-0.201-0.329-0.135-0.722-0.070-0.989 0.196l-3.177 3.172-3.168-3.173c-0.354-0.354-0.936-0.354-1.292 0-0.089 0.089-0.156 0.192-0.201 0.301-0.135 0.329-0.070 0.722 0.196 0.989l3.172 3.176-3.172 3.169c-0.266 0.265-0.332 0.659-0.2 0.99 0.044 0.11 0.111 0.214 0.2 0.303 0.354 0.357 0.935 0.359 1.289 0.006l3.176-3.173 3.17 3.173c0.265 0.266 0.659 0.332 0.99 0.199 0.11-0.044 0.214-0.111 0.303-0.199 0.357-0.354 0.359-0.935 0.006-1.289l-3.174-3.177z"></path>
</svg>
