<?xml version="1.0" encoding="utf-8"?>
<!-- Generated by IcoMoon.io -->
<!DOCTYPE svg PUBLIC "-//W3C//DTD SVG 1.1//EN" "http://www.w3.org/Graphics/SVG/1.1/DTD/svg11.dtd">
<svg version="1.1" xmlns="http://www.w3.org/2000/svg" xmlns:xlink="http://www.w3.org/1999/xlink" width="35" height="32" viewBox="0 0 35 32">
<path fill="#333333" d="M19.011 0.007c-0.035-0.003-0.069-0.007-0.104-0.007-0.922 0-1.56 0.747-1.56 1.669 0 0.908 0.354 1.647 1.74 1.666v0.005c6.586 0.090 12.347 5.716 12.347 12.621 0 6.961-5.716 12.704-12.677 12.704-6.643 0-12.158-5.013-12.644-11.598h2.931l-4.524-7.52-4.522 7.52h2.773c0.49 8.319 7.447 14.933 15.93 14.933 8.801 0 15.963-7.196 15.963-15.999 0-8.697-6.996-15.829-15.654-15.994z"></path>
<path fill="#333333" d="M20.474 7.78c0-0.785-0.631-1.459-1.414-1.459h-0.305c-0.783 0-1.4 0.674-1.4 1.459v8.391l-4.11 4.102c-0.607 0.607-0.575 1.591-0.002 2.194 0.575 0.61 1.584 0.61 2.191 0l4.541-4.541c0.035-0.038 0.062-0.076 0.097-0.111 0.25-0.258 0.402-0.608 0.402-0.995v-9.040z"></path>
</svg>
