<?xml version="1.0" encoding="utf-8"?>
<!-- Generated by IcoMoon.io -->
<!DOCTYPE svg PUBLIC "-//W3C//DTD SVG 1.1//EN" "http://www.w3.org/Graphics/SVG/1.1/DTD/svg11.dtd">
<svg version="1.1" xmlns="http://www.w3.org/2000/svg" xmlns:xlink="http://www.w3.org/1999/xlink" width="32" height="32" viewBox="0 0 32 32">
<path fill="#333333" d="M9.489 17.118l-0.409-0.409h-0.409l-0.818-0.818h-0.409l-0.409-0.409h-0.818l-0.204 0.204h-0.409l-1.022-1.022h-0.409l-0.409-0.409v-0.409l0.409-0.409h1.227l1.636-1.636h0.409l0.818-0.818h0.409l0.409-0.409-0.409-0.409h-0.409v-0.409h-0.409l-1.022 1.022-0.818-0.818 0.409-0.409h0.409l0.204-0.204h0.409l0.409-0.409 0.818 0.818 0.409-0.409v-0.409l-0.409-0.409 0.818-0.818h-1.227l-0.818 0.818h-0.409l-0.409 0.409-0.409-0.409h-1.227l-0.409 0.409h-1.227l-0.204-0.204h-1.227l-0.204 0.204h-0.409l-1.023 1.022 0.205 0.204h0.409l0.409-0.409h0.818l0.409 0.409v0.818l-0.409 0.409v0.409l-0.409 0.409v0.409l0.818 0.818v0.409l1.227 1.227h0.409l0.818 0.818h0.409l0.204 0.204v0.408l-0.204 0.205v0.818l0.204 0.204v0.409l1.022 1.022v2.045l0.409 0.409v0.818l0.409 0.409h0.409v-0.409l-0.204-0.204v-0.41l0.613-0.613v-0.409l0.818-0.818 0-0.409 0.818-0.818 0-0.409 0.409-0.409v-0.409l-0.409-0.409z"></path>
<path fill="#333333" d="M13.374 7.918l-0.204-0.204h-3.272l-0.409 0.409 0.204 0.204h0.409l0.204 0.204v0.409l-0.409 0.409 0.409 0.409h0.409l0.409-0.409h0.409l0.409-0.409h0.409z"></path>
<path fill="#333333" d="M18.486 18.754v0.818l0.204 0.204 0.204-0.204v-0.409l0.409-0.409v-0.409l-0.204-0.205z"></path>
<path fill="#333333" d="M25.846 17.527h-0.409l-1.227-1.227v0.409l1.022 1.022h0.818z"></path>
<path fill="#333333" d="M26.459 16.096h-0.409v0.408l-0.409 0.409 0.204 0.204h0.409l0.204-0.204v-0.409l0.205-0.204z"></path>
<path fill="#333333" d="M27.073 15.892h0.409v0.409h-0.409v-0.409z"></path>
<path fill="#333333" d="M28.504 21.82l0.205-0.204h-0.409z"></path>
<path fill="#333333" d="M28.504 16.914l-0.204 0.204-0.409-0.409v0.409l0.205 0.205h0.409l0.409 0.408h0.409l0.205 0.205v-0.409l-0.613-0.613z"></path>
<path fill="#333333" d="M29.526 19.572v-0.409l-0.205-0.204v-0.818l-0.204-0.204-0.204 0.204v0.409l-0.204 0.204-0.613-0.613-0.205 0.205h-0.409l-0.818 0.818h-0.409l-0.409 0.409-0 0.818-0.204 0.204 0.204 0.204h0.818l0.409-0.409h0.409l0.818 0.818h0.409l1.022-1.022v-0.409z"></path>
<path fill="#333333" d="M27.072 13.028l0.817-0.818 0.205 0.205-0.817 0.818-0.205-0.205z"></path>
<path fill="#333333" d="M13.167 10.985v0h0.409l0.409-0.409v-0.409h-0.409l-0.409 0.409z"></path>
<path fill="#333333" d="M24.21 15.892l0.818 0.818v-0.409l-0.613-0.613 0.205-0.204 0.408 0.409 0.409-0.409v-0.409l-0.409-0.409 0.409-0.409h0.409l0.409-0.409v-0.818l-0.409-0.409v-0.409l0.204-0.205 0.204 0.205h0.409l0.409-0.409v-0.818l-0.818-0.818h0.818l0.409-0.409 1.022 1.022v-0.818l0.613-0.613-0.409-0.409h-2.862l-0.204-0.204h-1.635l-0.205-0.204h-1.226l-0.409-0.409h-1.636l-0.408 0.409h-0.409l-0.409 0.409h-1.636l-0.204 0.204-0.204-0.204h-1.636l-1.022 1.022 0.205 0.204-0 0.409-0.411 0.409h-0.409l-0.204 0.204 0.204 0.204v0.409h-0.818l-0.204 0.204v0.409l0.207 0.204h0.409l0.818-0.818h0.409l0.204-0.204 0.409 0.409 0.205-0.204 0.409 0.409h0.409l0.409 0.409h0.818v0.409l-0.204 0.204h-0.818l-0.205-0.204h-0.409l-0.204 0.204-0.204-0.204h-0.409l-0.409-0.409h-0.818l-0.204 0.205h-0.409l-1.022 1.022v1.636l0.818 0.818h0.818l0.205-0.204h0.409l0.205 0.204v0.818l0.613 0.613v0.409l-0.204 0.205v0.818l0.204 0.204v0.409l0.205 0.204v0.409l0.409 0.409h0.409l0.819-0.818v-0.409l1.022-1.022v-0.409l-0.204-0.204v-0.818l1.227-1.227v-0.409h-0.818l-0.409-0.409v-0.409l-0.613-0.613-0-0.409 0.204-0.204v0.409l0.818 0.818v0.409l0.204 0.204 0.204-0.204h0.409l0.818-0.818-0.409-0.409h-0.409l-0.409-0.409 0.204-0.205 0.409 0.409h0.409l0.204 0.204h0.818l0.614 0.613v0.409l0.409 0.409v0.409l0.204 0.205 0.204-0.205v-0.818l0.613-0.613h0.409l0.818 0.818z"></path>
<path fill="#333333" d="M31.571 20.798l-0.409 0.409v0.409l0.409-0.409z"></path>
<path fill="#333333" d="M30.344 21.617l-0.409 0.409 0.204 0.205 0.409-0.41h0.409v-0.408l-0.204 0.204z"></path>
</svg>
